<?xml version="1.0" standalone="no"?>
<!DOCTYPE svg PUBLIC "-//W3C//DTD SVG 20010904//EN"
 "http://www.w3.org/TR/2001/REC-SVG-20010904/DTD/svg10.dtd">
<svg version="1.0" xmlns="http://www.w3.org/2000/svg"
 width="1282.000000pt" height="869.000000pt" viewBox="0 0 1282.000000 869.000000"
 preserveAspectRatio="xMidYMid meet">
<metadata>
Created by potrace 1.16, written by Peter Selinger 2001-2019
</metadata>
<g transform="translate(0.000000,869.000000) scale(0.100000,-0.100000)"
fill="#000000" stroke="none">
<path d="M1200 5540 l0 -2350 1943 -2 1942 -3 17 -70 c13 -50 19 -123 21 -255
5 -217 -3 -252 -59 -270 -41 -14 -67 -48 -88 -119 -20 -68 -49 -100 -97 -107
-33 -6 -39 -11 -54 -51 -17 -43 -30 -53 -434 -322 l-417 -278 -86 -5 c-102 -5
-138 -23 -138 -68 0 -37 38 -139 79 -212 18 -31 63 -131 101 -223 79 -193 117
-260 182 -320 110 -104 155 -55 109 117 -12 43 -23 127 -27 204 l-6 131 58 23
c33 13 86 37 118 54 52 27 70 31 140 31 l80 0 7 35 c4 19 12 64 19 99 21 114
34 131 144 174 52 20 182 76 288 122 217 96 215 95 354 278 95 125 116 168
147 297 30 122 85 321 91 328 5 5 3 8 145 -230 l111 -186 0 -404 c0 -324 -4
-444 -20 -613 -25 -268 -25 -265 1 -265 13 0 19 -5 16 -12 -64 -152 -75 -195
-58 -227 l12 -21 -1246 0 c-823 0 -1245 -3 -1245 -10 0 -7 1385 -10 4135 -10
2750 0 4135 3 4135 10 0 7 -842 10 -2502 11 -1875 1 -2495 4 -2473 12 83 32
130 63 133 89 5 38 -29 56 -134 75 -114 19 -400 124 -380 138 11 8 13 37 8
147 -4 124 -3 142 16 185 26 62 49 194 63 363 9 118 8 142 -7 202 -16 61 -17
82 -6 205 8 92 8 160 2 203 -5 36 -14 121 -20 189 -9 102 -16 136 -42 195 -51
117 -138 339 -138 353 0 11 329 13 1905 13 l1905 0 0 2350 0 2350 -4375 0
-4375 0 0 -2350z m1920 1655 l0 -55 -35 0 -35 0 0 55 0 55 35 0 35 0 0 -55z
m140 0 l0 -55 -35 0 -35 0 0 55 0 55 35 0 35 0 0 -55z m710 0 l0 -55 -35 0
-35 0 0 55 0 55 35 0 35 0 0 -55z m370 0 l0 -55 -35 0 -35 0 0 55 0 55 35 0
35 0 0 -55z m710 0 l0 -55 -35 0 -35 0 0 55 0 55 35 0 35 0 0 -55z m140 0 l0
-55 -40 0 -40 0 0 55 0 55 40 0 40 0 0 -55z m710 0 l0 -55 -40 0 -40 0 0 55 0
55 40 0 40 0 0 -55z m370 0 l0 -55 -35 0 -35 0 0 55 0 55 35 0 35 0 0 -55z
m710 0 l0 -55 -40 0 -40 0 0 55 0 55 40 0 40 0 0 -55z m140 0 l0 -55 -40 0
-40 0 0 55 0 55 40 0 40 0 0 -55z m710 0 l0 -55 -40 0 -40 0 0 55 0 55 40 0
40 0 0 -55z m370 0 l0 -55 -40 0 -40 0 0 55 0 55 40 0 40 0 0 -55z m-5340 -30
l0 -55 -40 0 -40 0 0 55 0 55 40 0 40 0 0 -55z m800 0 l0 -55 -35 0 -35 0 0
55 0 55 35 0 35 0 0 -55z m1130 0 l0 -55 -40 0 -40 0 0 55 0 55 40 0 40 0 0
-55z m800 0 l0 -55 -35 0 -35 0 0 55 0 55 35 0 35 0 0 -55z m1120 0 l0 -55
-35 0 -35 0 0 55 0 55 35 0 35 0 0 -55z m810 0 l0 -55 -35 0 -35 0 0 55 0 55
35 0 35 0 0 -55z m-4260 -155 l0 -60 -35 0 c-24 0 -35 5 -35 15 0 8 7 15 15
15 10 0 15 10 15 30 0 20 -5 30 -15 30 -8 0 -15 7 -15 15 0 10 11 15 35 15
l35 0 0 -60z m150 0 l0 -60 -35 0 -35 0 0 60 0 60 35 0 35 0 0 -60z m790 0 l0
-60 -35 0 -35 0 0 60 0 60 35 0 35 0 0 -60z m990 0 l0 -60 -40 0 c-42 0 -55
18 -20 27 14 4 20 14 20 33 0 19 -6 29 -20 33 -35 9 -22 27 20 27 l40 0 0 -60z
m150 0 l0 -60 -35 0 -35 0 0 60 0 60 35 0 35 0 0 -60z m790 0 l0 -60 -35 0
-35 0 0 60 0 60 35 0 35 0 0 -60z m990 0 l0 -60 -40 0 c-29 0 -40 4 -40 15 0
8 7 15 15 15 10 0 15 10 15 30 0 20 -5 30 -15 30 -8 0 -15 7 -15 15 0 11 11
15 40 15 l40 0 0 -60z m150 0 l0 -60 -35 0 -35 0 0 60 0 60 35 0 35 0 0 -60z
m790 0 l0 -60 -35 0 -35 0 0 60 0 60 35 0 35 0 0 -60z m-5200 -45 l0 -55 -40
0 -40 0 0 55 0 55 40 0 40 0 0 -55z m800 0 l0 -55 -35 0 -35 0 0 55 0 55 35 0
35 0 0 -55z m1130 0 l0 -55 -40 0 -40 0 0 55 0 55 40 0 40 0 0 -55z m800 0 l0
-55 -35 0 -35 0 0 55 0 55 35 0 35 0 0 -55z m1120 0 l0 -55 -35 0 -35 0 0 55
0 55 35 0 35 0 0 -55z m810 0 l0 -55 -35 0 -35 0 0 55 0 55 35 0 35 0 0 -55z
m-4400 -140 l0 -55 -35 0 c-19 0 -35 5 -35 10 0 6 7 10 15 10 10 0 15 11 15
35 0 24 -5 35 -15 35 -8 0 -15 5 -15 10 0 6 16 10 35 10 l35 0 0 -55z m140 0
l0 -55 -35 0 -35 0 0 55 0 55 35 0 35 0 0 -55z m710 0 l0 -55 -35 0 c-36 0
-47 13 -20 24 9 3 15 18 15 36 0 20 -5 30 -15 30 -8 0 -15 5 -15 10 0 6 16 10
35 10 l35 0 0 -55z m370 0 l0 -55 -35 0 c-19 0 -35 5 -35 10 0 6 7 10 15 10
10 0 15 11 15 35 0 24 -5 35 -15 35 -8 0 -15 5 -15 10 0 6 16 10 35 10 l35 0
0 -55z m710 0 l0 -55 -35 0 c-19 0 -35 5 -35 10 0 6 7 10 15 10 10 0 15 11 15
35 0 24 -5 35 -15 35 -8 0 -15 5 -15 10 0 6 16 10 35 10 l35 0 0 -55z m140 0
l0 -55 -40 0 -40 0 0 55 0 55 40 0 40 0 0 -55z m710 0 l0 -55 -40 0 c-42 0
-54 14 -20 23 14 3 20 14 20 32 0 18 -6 29 -20 32 -34 9 -22 23 20 23 l40 0 0
-55z m370 0 l0 -55 -35 0 c-36 0 -47 13 -20 24 8 3 15 17 15 31 0 14 -7 28
-15 31 -27 11 -16 24 20 24 l35 0 0 -55z m710 0 l0 -55 -40 0 c-42 0 -54 14
-20 23 14 3 20 14 20 32 0 18 -6 29 -20 32 -34 9 -22 23 20 23 l40 0 0 -55z
m140 0 l0 -55 -40 0 -40 0 0 55 0 55 40 0 40 0 0 -55z m710 0 l0 -55 -40 0
c-22 0 -40 5 -40 10 0 6 7 10 15 10 10 0 15 11 15 35 0 24 -5 35 -15 35 -8 0
-15 5 -15 10 0 6 18 10 40 10 l40 0 0 -55z m370 0 l0 -55 -40 0 c-22 0 -40 5
-40 10 0 6 7 10 15 10 10 0 15 11 15 35 0 24 -5 35 -15 35 -8 0 -15 5 -15 10
0 6 18 10 40 10 l40 0 0 -55z m-4790 -15 l0 -60 -35 0 -35 0 0 60 0 60 35 0
35 0 0 -60z m790 0 l0 -60 -35 0 -35 0 0 60 0 60 35 0 35 0 0 -60z m1140 0 l0
-60 -35 0 -35 0 0 60 0 60 35 0 35 0 0 -60z m790 0 l0 -60 -35 0 -35 0 0 60 0
60 35 0 35 0 0 -60z m1140 0 l0 -60 -35 0 -35 0 0 60 0 60 35 0 35 0 0 -60z
m790 0 l0 -60 -35 0 -35 0 0 60 0 60 35 0 35 0 0 -60z m-5222 -7 c-15 -2 -42
-2 -60 0 -18 2 -6 4 27 4 33 0 48 -2 33 -4z m800 0 c-16 -2 -40 -2 -55 0 -16
2 -3 4 27 4 30 0 43 -2 28 -4z m1120 0 c-16 -2 -40 -2 -55 0 -16 2 -3 4 27 4
30 0 43 -2 28 -4z m810 0 c-16 -2 -40 -2 -55 0 -16 2 -3 4 27 4 30 0 43 -2 28
-4z m1120 0 c-16 -2 -40 -2 -55 0 -16 2 -3 4 27 4 30 0 43 -2 28 -4z m810 0
c-15 -2 -42 -2 -60 0 -18 2 -6 4 27 4 33 0 48 -2 33 -4z m-4378 -178 l0 -55
-35 0 c-19 0 -35 5 -35 10 0 6 7 10 15 10 10 0 15 11 15 35 0 24 -5 35 -15 35
-8 0 -15 5 -15 10 0 6 16 10 35 10 l35 0 0 -55z m290 0 l0 -55 -35 0 c-19 0
-35 5 -35 10 0 6 7 10 15 10 10 0 15 11 15 35 0 24 -5 35 -15 35 -8 0 -15 5
-15 10 0 6 16 10 35 10 l35 0 0 -55z m560 0 l0 -55 -35 0 c-19 0 -35 5 -35 10
0 6 7 10 15 10 10 0 15 10 15 30 0 18 -6 33 -15 36 -27 11 -16 24 20 24 l35 0
0 -55z m230 0 l0 -55 -35 0 c-19 0 -35 5 -35 10 0 6 7 10 15 10 10 0 15 11 15
35 0 24 -5 35 -15 35 -8 0 -15 5 -15 10 0 6 16 10 35 10 l35 0 0 -55z m140 0
l0 -55 -35 0 c-19 0 -35 5 -35 10 0 6 7 10 15 10 10 0 15 11 15 35 0 24 -5 35
-15 35 -8 0 -15 5 -15 10 0 6 16 10 35 10 l35 0 0 -55z m710 0 l0 -55 -35 0
c-19 0 -35 5 -35 10 0 6 7 10 15 10 10 0 15 10 15 30 0 18 -6 33 -15 36 -27
11 -16 24 20 24 l35 0 0 -55z m290 0 l0 -55 -35 0 c-19 0 -35 5 -35 10 0 6 7
10 15 10 10 0 15 11 15 35 0 24 -5 35 -15 35 -8 0 -15 5 -15 10 0 6 16 10 35
10 l35 0 0 -55z m560 5 c0 -48 1 -50 40 -70 21 -11 48 -20 59 -20 26 0 131
-43 131 -53 0 -15 74 -97 87 -97 19 0 17 59 -2 66 -27 11 -16 24 20 24 l35 0
0 -55 c0 -47 -3 -55 -18 -55 -29 0 -33 -10 -16 -41 8 -17 23 -29 34 -29 11 0
33 -12 50 -27 l29 -28 -39 -90 c-29 -66 -39 -104 -40 -142 0 -49 -2 -53 -23
-53 -19 0 -28 -9 -40 -40 l-15 -40 39 0 39 0 0 -60 0 -60 -35 0 -35 0 0 55 c0
30 -3 55 -7 55 -5 0 -43 -82 -86 -183 -71 -168 -77 -187 -77 -250 0 -38 5 -88
11 -113 11 -43 13 -44 50 -44 l39 0 0 -60 c0 -51 -3 -60 -18 -60 -12 0 -33
-29 -66 -90 l-48 -91 4 -247 c3 -218 6 -252 23 -292 18 -39 20 -64 17 -200 -2
-85 -4 -195 -5 -245 -1 -49 2 -121 7 -160 8 -68 7 -71 -23 -115 -21 -30 -31
-57 -31 -82 l0 -38 -60 0 c-35 0 -60 -4 -60 -10 0 -6 7 -27 15 -47 15 -36 15
-38 -6 -53 l-21 -17 21 -41 c12 -23 21 -46 21 -51 0 -12 -53 -41 -130 -71
l-52 -20 -21 50 c-18 42 -25 50 -42 46 -17 -4 -28 10 -75 102 l-55 107 -267 3
-268 2 0 76 c0 86 -23 187 -79 349 -77 221 -107 416 -98 630 9 212 66 443 156
625 27 56 35 80 25 80 -10 0 -14 15 -14 60 l0 60 35 0 c29 0 35 -4 35 -22 0
-16 14 0 50 52 45 69 48 75 30 82 -17 6 -20 17 -20 63 l0 55 40 0 c39 0 40 -1
40 -35 l0 -36 54 58 c36 38 49 59 40 61 -19 5 -18 32 1 32 10 0 15 10 15 30 0
18 -6 33 -15 36 -27 11 -16 24 20 24 34 0 35 -1 35 -40 0 -43 9 -50 31 -24 10
13 10 24 0 62 -24 83 -14 100 69 126 34 10 45 18 43 32 -1 11 -5 76 -9 146 -7
126 -7 126 23 190 38 80 155 214 202 229 20 7 59 9 97 5 l64 -7 0 27 c0 17 -6
28 -20 31 -34 9 -22 23 20 23 l40 0 0 -50z m230 -5 l0 -55 -35 0 c-19 0 -35 5
-35 10 0 6 7 10 15 10 10 0 15 11 15 35 0 24 -5 35 -15 35 -8 0 -15 5 -15 10
0 6 16 10 35 10 l35 0 0 -55z m140 0 l0 -55 -35 0 c-36 0 -47 13 -20 24 8 3
15 17 15 31 0 14 -7 28 -15 31 -27 11 -16 24 20 24 l35 0 0 -55z m710 0 l0
-55 -40 0 c-42 0 -54 14 -20 23 14 3 20 14 20 32 0 18 -6 29 -20 32 -34 9 -22
23 20 23 l40 0 0 -55z m290 0 l0 -55 -35 0 c-19 0 -35 5 -35 10 0 6 7 10 15
10 10 0 15 11 15 35 0 24 -5 35 -15 35 -8 0 -15 5 -15 10 0 6 16 10 35 10 l35
0 0 -55z m560 0 l0 -55 -40 0 c-22 0 -40 5 -40 10 0 6 7 10 15 10 10 0 15 11
15 35 0 24 -5 35 -15 35 -8 0 -15 5 -15 10 0 6 18 10 40 10 l40 0 0 -55z m230
0 l0 -55 -35 0 c-36 0 -47 13 -20 24 8 3 15 17 15 31 0 14 -7 28 -15 31 -27
11 -16 24 20 24 l35 0 0 -55z m140 0 l0 -55 -40 0 c-22 0 -40 5 -40 10 0 6 7
10 15 10 10 0 15 11 15 35 0 24 -5 35 -15 35 -8 0 -15 5 -15 10 0 6 18 10 40
10 l40 0 0 -55z m-5340 -15 l0 -60 -40 0 c-42 0 -55 18 -20 27 14 4 20 14 20
34 0 22 -5 29 -20 29 -11 0 -20 7 -20 15 0 11 11 15 40 15 l40 0 0 -60z m800
0 l0 -60 -35 0 c-24 0 -35 5 -35 15 0 8 7 15 15 15 10 0 15 10 15 30 0 20 -5
30 -15 30 -8 0 -15 7 -15 15 0 10 11 15 35 15 l35 0 0 -60z m1130 0 l0 -60
-40 0 c-40 0 -54 15 -25 26 9 4 15 19 15 35 0 19 -5 29 -15 29 -8 0 -15 7 -15
15 0 11 11 15 40 15 l40 0 0 -60z m800 0 l0 -60 -35 0 c-24 0 -35 5 -35 15 0
8 7 15 15 15 10 0 15 10 15 30 0 20 -5 30 -15 30 -8 0 -15 7 -15 15 0 10 11
15 35 15 l35 0 0 -60z m1120 0 l0 -60 -35 0 c-24 0 -35 5 -35 15 0 8 7 15 15
15 10 0 15 10 15 30 0 20 -5 30 -15 30 -8 0 -15 7 -15 15 0 10 11 15 35 15
l35 0 0 -60z m810 0 l0 -60 -35 0 c-24 0 -35 5 -35 15 0 8 7 15 15 15 10 0 15
10 15 30 0 20 -5 30 -15 30 -8 0 -15 7 -15 15 0 10 11 15 35 15 l35 0 0 -60z
m-4272 3 c-16 -2 -40 -2 -55 0 -16 2 -3 4 27 4 30 0 43 -2 28 -4z m1930 0
c-16 -2 -40 -2 -55 0 -16 2 -3 4 27 4 30 0 43 -2 28 -4z m1930 0 c-16 -2 -40
-2 -55 0 -16 2 -3 4 27 4 30 0 43 -2 28 -4z m-3698 -173 l0 -60 -35 0 c-24 0
-35 5 -35 15 0 8 7 15 15 15 10 0 15 10 15 30 0 20 -5 30 -15 30 -8 0 -15 7
-15 15 0 10 11 15 35 15 l35 0 0 -60z m790 0 l0 -60 -35 0 c-24 0 -35 5 -35
15 0 8 7 15 15 15 10 0 15 10 15 30 0 20 -5 30 -15 30 -8 0 -15 7 -15 15 0 10
11 15 35 15 l35 0 0 -60z m1140 0 l0 -60 -35 0 c-24 0 -35 5 -35 15 0 8 7 15
15 15 10 0 15 10 15 30 0 20 -5 30 -15 30 -8 0 -15 7 -15 15 0 10 11 15 35 15
l35 0 0 -60z m1930 0 l0 -60 -35 0 c-24 0 -35 5 -35 15 0 8 7 15 15 15 10 0
15 10 15 30 0 20 -5 30 -15 30 -8 0 -15 7 -15 15 0 10 11 15 35 15 l35 0 0
-60z m790 0 l0 -60 -35 0 c-24 0 -35 5 -35 15 0 8 7 15 15 15 10 0 15 10 15
30 0 20 -5 30 -15 30 -8 0 -15 7 -15 15 0 10 11 15 35 15 l35 0 0 -60z m-4940
-15 l0 -55 -35 0 c-19 0 -35 5 -35 10 0 6 7 10 15 10 10 0 15 11 15 35 0 24
-5 35 -15 35 -8 0 -15 5 -15 10 0 6 16 10 35 10 l35 0 0 -55z m140 0 l0 -55
-35 0 -35 0 0 55 0 55 35 0 35 0 0 -55z m710 0 l0 -55 -35 0 c-19 0 -35 5 -35
10 0 6 7 10 15 10 10 0 15 10 15 30 0 18 -6 33 -15 36 -27 11 -16 24 20 24
l35 0 0 -55z m370 0 l0 -55 -35 0 c-19 0 -35 5 -35 10 0 6 7 10 15 10 10 0 15
10 15 30 0 18 -6 33 -15 36 -27 11 -16 24 20 24 l35 0 0 -55z m710 0 l0 -55
-35 0 c-19 0 -35 5 -35 10 0 6 7 10 15 10 10 0 15 10 15 30 0 18 -6 33 -15 36
-27 11 -16 24 20 24 l35 0 0 -55z m140 0 l0 -55 -40 0 -40 0 0 55 0 55 40 0
40 0 0 -55z m1790 0 l0 -55 -40 0 c-42 0 -54 14 -20 23 14 3 20 14 20 32 0 18
-6 29 -20 32 -34 9 -22 23 20 23 l40 0 0 -55z m140 0 l0 -55 -40 0 -40 0 0 55
0 55 40 0 40 0 0 -55z m710 0 l0 -55 -40 0 c-22 0 -40 5 -40 10 0 6 7 10 15
10 10 0 15 11 15 35 0 24 -5 35 -15 35 -8 0 -15 5 -15 10 0 6 18 10 40 10 l40
0 0 -55z m370 0 l0 -55 -40 0 c-22 0 -40 5 -40 10 0 6 7 10 15 10 10 0 15 11
15 35 0 24 -5 35 -15 35 -8 0 -15 5 -15 10 0 6 18 10 40 10 l40 0 0 -55z
m-5342 -202 l-3 -58 -34 0 c-38 0 -53 19 -21 28 28 7 28 57 0 64 -34 9 -22 23
20 23 l41 0 -3 -57z m262 -3 l0 -60 -35 0 -35 0 0 60 0 60 35 0 35 0 0 -60z
m290 0 l0 -60 -35 0 -35 0 0 60 0 60 35 0 35 0 0 -60z m250 0 l0 -60 -35 0
c-24 0 -35 5 -35 15 0 8 7 15 15 15 10 0 15 10 15 30 0 18 -6 33 -15 36 -27
11 -16 24 20 24 l35 0 0 -60z m310 0 l0 -60 -35 0 -35 0 0 60 0 60 35 0 35 0
0 -60z m230 0 l0 -60 -35 0 -35 0 0 60 0 60 35 0 35 0 0 -60z m140 0 l0 -60
-35 0 -35 0 0 60 0 60 35 0 35 0 0 -60z m448 3 l-3 -58 -34 0 c-19 0 -36 6
-38 13 -3 6 2 12 11 12 12 0 16 10 16 35 0 24 -5 35 -15 35 -8 0 -15 5 -15 10
0 6 18 10 40 10 l41 0 -3 -57z m262 -3 l0 -60 -35 0 -35 0 0 60 0 60 35 0 35
0 0 -60z m290 0 l0 -60 -35 0 -35 0 0 60 0 60 35 0 35 0 0 -60z m1370 0 l0
-60 -35 0 c-24 0 -35 5 -35 15 0 8 7 15 15 15 10 0 15 11 15 35 0 24 -5 35
-15 35 -8 0 -15 5 -15 10 0 6 16 10 35 10 l35 0 0 -60z m270 -1 l0 -60 -37 3
-38 3 -3 58 -3 57 41 0 40 0 0 -61z m290 1 l0 -60 -35 0 -35 0 0 60 0 60 35 0
35 0 0 -60z m250 0 l0 -60 -35 0 c-24 0 -35 5 -35 15 0 8 7 15 15 15 10 0 15
10 15 30 0 18 -6 33 -15 36 -27 11 -16 24 20 24 l35 0 0 -60z m308 3 l-3 -58
-35 0 -35 0 -3 58 -3 57 41 0 41 0 -3 -57z m232 -3 l0 -60 -35 0 -35 0 0 60 0
60 35 0 35 0 0 -60z m138 3 l-3 -58 -35 0 -35 0 -3 58 -3 57 41 0 41 0 -3 -57z
m-5078 -203 l0 -60 -35 0 c-24 0 -35 5 -35 15 0 8 7 15 15 15 10 0 15 10 15
30 0 18 -6 33 -15 36 -27 11 -16 24 20 24 l35 0 0 -60z m140 0 l0 -60 -35 0
-35 0 0 60 0 60 35 0 35 0 0 -60z m150 0 l0 -60 -35 0 c-24 0 -35 5 -35 15 0
8 7 15 15 15 10 0 15 11 15 35 0 24 -5 35 -15 35 -8 0 -15 5 -15 10 0 6 16 10
35 10 l35 0 0 -60z m560 0 l0 -60 -35 0 c-24 0 -35 5 -35 15 0 8 7 15 15 15
10 0 15 10 15 30 0 18 -6 33 -15 36 -27 11 -16 24 20 24 l35 0 0 -60z m230 0
l0 -60 -35 0 c-24 0 -35 5 -35 15 0 8 7 15 15 15 10 0 15 10 15 30 0 18 -6 33
-15 36 -27 11 -16 24 20 24 l35 0 0 -60z m140 0 l0 -60 -35 0 c-24 0 -35 5
-35 15 0 8 7 15 15 15 10 0 15 10 15 30 0 18 -6 33 -15 36 -27 11 -16 24 20
24 l35 0 0 -60z m710 0 l0 -60 -35 0 c-24 0 -35 5 -35 15 0 8 7 15 15 15 10 0
15 10 15 30 0 18 -6 33 -15 36 -27 11 -16 24 20 24 l35 0 0 -60z m140 -1 l0
-60 -37 3 -38 3 -3 58 -3 57 41 0 40 0 0 -61z m150 1 l0 -60 -35 0 c-24 0 -35
5 -35 15 0 8 7 15 15 15 10 0 15 11 15 35 0 24 -5 35 -15 35 -8 0 -15 5 -15
10 0 6 16 10 35 10 l35 0 0 -60z m1640 -1 l0 -60 -37 3 c-39 3 -60 28 -24 28
30 0 30 59 1 67 -34 9 -22 23 20 23 l40 0 0 -61z m138 4 l-3 -58 -37 -3 -38
-3 0 60 0 61 40 0 41 0 -3 -57z m152 -3 l0 -60 -35 0 c-24 0 -35 5 -35 15 0 8
7 15 15 15 10 0 15 11 15 35 0 24 -5 35 -15 35 -8 0 -15 5 -15 10 0 6 16 10
35 10 l35 0 0 -60z m558 3 l-3 -58 -37 -3 c-29 -2 -38 0 -38 12 0 9 7 16 15
16 10 0 15 11 15 35 0 24 -5 35 -15 35 -8 0 -15 5 -15 10 0 6 18 10 40 10 l41
0 -3 -57z m232 -3 l0 -60 -35 0 c-24 0 -35 5 -35 15 0 8 7 15 15 15 10 0 15
10 15 30 0 18 -6 33 -15 36 -27 11 -16 24 20 24 l35 0 0 -60z m138 3 l-3 -58
-37 -3 c-29 -2 -38 0 -38 12 0 9 7 16 15 16 10 0 15 11 15 35 0 24 -5 35 -15
35 -8 0 -15 5 -15 10 0 6 18 10 40 10 l41 0 -3 -57z m-4938 -183 l0 -60 -35 0
c-36 0 -47 13 -20 24 9 3 15 18 15 36 0 20 -5 30 -15 30 -8 0 -15 7 -15 15 0
10 11 15 35 15 l35 0 0 -60z m1930 0 l0 -60 -40 0 c-42 0 -54 14 -20 23 15 4
20 14 20 36 0 24 -4 31 -20 31 -20 0 -26 11 -13 23 3 4 21 7 40 7 l33 0 0 -60z
m1928 -2 l3 -58 -41 0 c-22 0 -40 5 -40 10 0 6 7 10 15 10 10 0 15 11 15 35 0
24 -5 35 -15 35 -8 0 -15 7 -15 16 0 12 9 14 38 12 l37 -3 3 -57z m-3998 -18
l0 -60 -35 0 -35 0 0 60 0 60 35 0 35 0 0 -60z m290 0 l0 -60 -35 0 c-24 0
-35 5 -35 15 0 8 7 15 15 15 10 0 15 11 15 35 0 24 -5 35 -15 35 -8 0 -15 5
-15 10 0 6 16 10 35 10 l35 0 0 -60z m560 0 l0 -60 -35 0 -35 0 0 60 0 60 35
0 35 0 0 -60z m230 0 l0 -60 -35 0 c-24 0 -35 5 -35 15 0 8 7 15 15 15 10 0
15 10 15 30 0 18 -6 33 -15 36 -27 11 -16 24 20 24 l35 0 0 -60z m140 0 l0
-60 -35 0 -35 0 0 60 0 60 35 0 35 0 0 -60z m200 0 l0 -60 -35 0 -35 0 0 60 0
60 35 0 35 0 0 -60z m510 0 l0 -60 -35 0 -35 0 0 60 0 60 35 0 35 0 0 -60z
m1420 0 l0 -60 -35 0 -35 0 0 60 0 60 35 0 35 0 0 -60z m510 -1 l0 -60 -37 3
-38 3 -3 58 -3 57 41 0 40 0 0 -61z m290 1 l0 -60 -35 0 c-24 0 -35 5 -35 15
0 8 7 15 15 15 10 0 15 10 15 30 0 18 -6 33 -15 36 -27 11 -16 24 20 24 l35 0
0 -60z m558 3 l-3 -58 -37 -3 -38 -3 0 60 0 61 40 0 41 0 -3 -57z m232 -3 l0
-60 -35 0 c-24 0 -35 5 -35 15 0 8 7 15 15 15 10 0 15 10 15 30 0 18 -6 33
-15 36 -27 11 -16 24 20 24 l35 0 0 -60z m140 0 l0 -60 -40 0 -40 0 0 60 0 60
40 0 40 0 0 -60z m200 -1 l0 -60 -37 3 -38 3 -3 58 -3 57 41 0 40 0 0 -61z
m-5562 -6 c-15 -2 -42 -2 -60 0 -18 2 -6 4 27 4 33 0 48 -2 33 -4z m800 0
c-16 -2 -40 -2 -55 0 -16 2 -3 4 27 4 30 0 43 -2 28 -4z m1130 0 c-15 -2 -42
-2 -60 0 -18 2 -6 4 27 4 33 0 48 -2 33 -4z m1920 0 c-16 -2 -40 -2 -55 0 -16
2 -3 4 27 4 30 0 43 -2 28 -4z m810 0 c-15 -2 -42 -2 -60 0 -18 2 -6 4 27 4
33 0 48 -2 33 -4z m-4238 -163 l0 -60 -35 0 -35 0 0 60 0 60 35 0 35 0 0 -60z
m3858 3 l-3 -58 -37 -3 -38 -3 0 60 0 61 40 0 41 0 -3 -57z m-3998 -33 l0 -60
-35 0 c-24 0 -35 5 -35 15 0 8 7 15 15 15 10 0 15 10 15 30 0 18 -6 33 -15 36
-27 11 -16 24 20 24 l35 0 0 -60z m850 0 l0 -60 -35 0 c-24 0 -35 5 -35 15 0
8 7 15 15 15 10 0 15 10 15 30 0 18 -6 33 -15 36 -27 11 -16 24 20 24 l35 0 0
-60z m370 0 l0 -60 -35 0 c-24 0 -35 5 -35 15 0 8 7 15 15 15 10 0 15 10 15
30 0 18 -6 33 -15 36 -27 11 -16 24 20 24 l35 0 0 -60z m200 0 l0 -60 -35 0
-35 0 0 60 0 60 35 0 35 0 0 -60z m510 0 l0 -60 -35 0 c-24 0 -35 5 -35 15 0
8 7 15 15 15 10 0 15 10 15 30 0 18 -6 33 -15 36 -27 11 -16 24 20 24 l35 0 0
-60z m1220 0 l0 -60 -35 0 c-24 0 -35 5 -35 15 0 8 7 15 15 15 10 0 15 10 15
30 0 18 -6 33 -15 36 -27 11 -16 24 20 24 l35 0 0 -60z m200 0 l0 -60 -35 0
-35 0 0 60 0 60 35 0 35 0 0 -60z m510 0 l0 -60 -40 0 c-29 0 -40 4 -40 15 0
8 9 15 20 15 16 0 20 7 20 31 0 22 -5 32 -20 36 -34 9 -22 23 20 23 l40 0 0
-60z m850 0 l0 -60 -40 0 c-29 0 -40 4 -40 15 0 8 7 15 15 15 10 0 15 11 15
35 0 24 -5 35 -15 35 -8 0 -15 5 -15 10 0 6 18 10 40 10 l40 0 0 -60z m370 0
l0 -60 -40 0 c-29 0 -40 4 -40 15 0 8 7 15 15 15 10 0 15 11 15 35 0 24 -5 35
-15 35 -8 0 -15 5 -15 10 0 6 18 10 40 10 l40 0 0 -60z m200 0 l0 -60 -40 0
-40 0 0 60 0 60 40 0 40 0 0 -60z m-5562 23 c-15 -2 -42 -2 -60 0 -18 2 -6 4
27 4 33 0 48 -2 33 -4z m800 0 c-16 -2 -40 -2 -55 0 -16 2 -3 4 27 4 30 0 43
-2 28 -4z m1130 0 c-15 -2 -42 -2 -60 0 -18 2 -6 4 27 4 33 0 48 -2 33 -4z
m1920 0 c-16 -2 -40 -2 -55 0 -16 2 -3 4 27 4 30 0 43 -2 28 -4z m810 0 c-15
-2 -42 -2 -60 0 -18 2 -6 4 27 4 33 0 48 -2 33 -4z m-4238 -173 l0 -60 -35 0
-35 0 0 60 0 60 35 0 35 0 0 -60z m3858 -2 l3 -58 -41 0 -40 0 0 61 0 60 38
-3 37 -3 3 -57z m-4260 -30 l3 -58 -41 0 c-42 0 -54 14 -20 23 14 3 20 14 20
32 0 18 -6 29 -20 32 -39 10 -19 35 25 31 29 -3 30 -5 33 -60z m802 2 l0 -60
-35 0 c-19 0 -35 5 -35 10 0 6 7 10 15 10 10 0 15 11 15 35 0 24 -5 35 -15 35
-8 0 -15 7 -15 15 0 10 11 15 35 15 l35 0 0 -60z m1128 -2 l3 -58 -41 0 c-22
0 -40 5 -40 10 0 6 7 10 15 10 10 0 15 11 15 35 0 24 -5 35 -15 35 -8 0 -15 4
-15 8 0 16 15 23 45 20 29 -3 30 -5 33 -60z m1922 2 l0 -60 -35 0 c-19 0 -35
5 -35 10 0 6 7 10 15 10 10 0 15 11 15 35 0 24 -5 35 -15 35 -8 0 -15 7 -15
15 0 10 11 15 35 15 l35 0 0 -60z m808 -2 l3 -58 -36 0 c-36 0 -47 13 -20 24
9 3 15 18 15 36 0 20 -5 30 -15 30 -8 0 -15 7 -15 16 0 11 8 14 33 12 32 -3
32 -4 35 -60z m-4398 -18 l0 -60 -35 0 -35 0 0 60 0 60 35 0 35 0 0 -60z m850
0 l0 -60 -35 0 -35 0 0 60 0 60 35 0 35 0 0 -60z m370 0 l0 -60 -35 0 -35 0 0
60 0 60 35 0 35 0 0 -60z m1930 0 l0 -60 -35 0 -35 0 0 60 0 60 35 0 35 0 0
-60z m710 0 l0 -60 -40 0 -40 0 0 60 0 60 40 0 40 0 0 -60z m850 0 l0 -60 -40
0 -40 0 0 60 0 60 40 0 40 0 0 -60z m370 0 l0 -60 -40 0 -40 0 0 60 0 60 40 0
40 0 0 -60z m-3682 33 c-16 -2 -40 -2 -55 0 -16 2 -3 4 27 4 30 0 43 -2 28 -4z
m1930 0 c-16 -2 -40 -2 -55 0 -16 2 -3 4 27 4 30 0 43 -2 28 -4z m1925 0 c-13
-2 -35 -2 -50 0 -16 2 -5 4 22 4 28 0 40 -2 28 -4z m-3833 -183 l0 -60 -35 0
c-36 0 -47 13 -20 24 9 3 15 18 15 36 0 20 -5 30 -15 30 -8 0 -15 7 -15 15 0
10 11 15 35 15 l35 0 0 -60z m1930 0 l0 -60 -35 0 c-36 0 -47 13 -20 24 9 3
15 18 15 36 0 20 -5 30 -15 30 -8 0 -15 7 -15 15 0 10 11 15 35 15 l35 0 0
-60z m1928 -2 l3 -58 -41 0 c-42 0 -54 14 -20 23 14 3 20 14 20 32 0 18 -6 29
-20 32 -39 10 -19 35 25 31 29 -3 30 -5 33 -60z m-5538 -33 l0 -55 -40 0 c-42
0 -54 14 -20 23 14 3 20 14 20 32 0 18 -6 29 -20 32 -34 9 -22 23 20 23 l40 0
0 -55z m1930 0 l0 -55 -40 0 c-22 0 -40 5 -40 10 0 6 7 10 15 10 10 0 15 11
15 35 0 24 -5 35 -15 35 -8 0 -15 5 -15 10 0 6 18 10 40 10 l40 0 0 -55z
m1920 0 l0 -55 -35 0 c-19 0 -35 5 -35 10 0 6 7 10 15 10 10 0 15 11 15 35 0
24 -5 35 -15 35 -8 0 -15 5 -15 10 0 6 16 10 35 10 l35 0 0 -55z m-3590 -15
l0 -60 -35 0 c-24 0 -35 5 -35 15 0 8 7 15 15 15 10 0 15 10 15 30 0 20 -5 30
-15 30 -8 0 -15 7 -15 15 0 10 11 15 35 15 l35 0 0 -60z m290 0 l0 -60 -35 0
c-24 0 -35 5 -35 15 0 8 7 15 15 15 10 0 15 10 15 30 0 20 -5 30 -15 30 -8 0
-15 7 -15 15 0 10 11 15 35 15 l35 0 0 -60z m560 0 l0 -60 -35 0 c-24 0 -35 5
-35 15 0 8 7 15 15 15 10 0 15 10 15 30 0 20 -5 30 -15 30 -8 0 -15 7 -15 15
0 10 11 15 35 15 l35 0 0 -60z m230 0 l0 -60 -35 0 c-24 0 -35 5 -35 15 0 8 7
15 15 15 10 0 15 10 15 30 0 20 -5 30 -15 30 -8 0 -15 7 -15 15 0 10 11 15 35
15 l35 0 0 -60z m140 0 l0 -60 -35 0 c-24 0 -35 5 -35 15 0 8 7 15 15 15 10 0
15 10 15 30 0 20 -5 30 -15 30 -8 0 -15 7 -15 15 0 10 11 15 35 15 l35 0 0
-60z m1930 0 l0 -60 -35 0 c-24 0 -35 5 -35 15 0 8 7 15 15 15 10 0 15 10 15
30 0 20 -5 30 -15 30 -8 0 -15 7 -15 15 0 10 11 15 35 15 l35 0 0 -60z m710 0
l0 -60 -40 0 c-42 0 -55 18 -20 27 14 4 20 14 20 33 0 19 -6 29 -20 33 -35 9
-22 27 20 27 l40 0 0 -60z m290 0 l0 -60 -35 0 c-24 0 -35 5 -35 15 0 8 7 15
15 15 10 0 15 10 15 30 0 20 -5 30 -15 30 -8 0 -15 7 -15 15 0 10 11 15 35 15
l35 0 0 -60z m560 0 l0 -60 -40 0 c-29 0 -40 4 -40 15 0 8 7 15 15 15 10 0 15
10 15 30 0 20 -5 30 -15 30 -8 0 -15 7 -15 15 0 11 11 15 40 15 l40 0 0 -60z
m230 0 l0 -60 -35 0 c-24 0 -35 5 -35 15 0 8 7 15 15 15 10 0 15 10 15 30 0
20 -5 30 -15 30 -8 0 -15 7 -15 15 0 10 11 15 35 15 l35 0 0 -60z m140 0 l0
-60 -40 0 c-29 0 -40 4 -40 15 0 8 7 15 15 15 10 0 15 10 15 29 0 16 -6 31
-15 35 -29 11 -15 26 25 26 l40 0 0 -60z m-4940 -170 l0 -60 -35 0 -35 0 0 60
0 60 35 0 35 0 0 -60z m3860 0 l0 -60 -40 0 -40 0 0 60 0 60 40 0 40 0 0 -60z
m-4260 -15 l0 -55 -40 0 -40 0 0 55 0 55 40 0 40 0 0 -55z m1930 0 l0 -55 -40
0 -40 0 0 55 0 55 40 0 40 0 0 -55z m1920 0 l0 -55 -35 0 -35 0 0 55 0 55 35
0 35 0 0 -55z m-3590 -15 l0 -60 -35 0 -35 0 0 60 0 60 35 0 35 0 0 -60z m850
0 l0 -60 -35 0 -35 0 0 60 0 60 35 0 35 0 0 -60z m370 0 l0 -60 -35 0 -35 0 0
60 0 60 35 0 35 0 0 -60z m1930 0 l0 -60 -35 0 -35 0 0 60 0 60 35 0 35 0 0
-60z m710 0 l0 -60 -40 0 -40 0 0 60 0 60 40 0 40 0 0 -60z m850 0 l0 -60 -40
0 -40 0 0 60 0 60 40 0 40 0 0 -60z m370 0 l0 -60 -40 0 -40 0 0 60 0 60 40 0
40 0 0 -60z m-3660 -140 l0 -60 -35 0 c-24 0 -35 5 -35 15 0 8 7 15 15 15 10
0 15 10 15 30 0 20 -5 30 -15 30 -8 0 -15 7 -15 15 0 10 11 15 35 15 l35 0 0
-60z m1930 0 l0 -60 -35 0 c-24 0 -35 5 -35 15 0 8 7 15 15 15 10 0 15 10 15
30 0 20 -5 30 -15 30 -8 0 -15 7 -15 15 0 10 11 15 35 15 l35 0 0 -60z m1930
0 l0 -60 -40 0 c-29 0 -40 4 -40 15 0 8 9 15 20 15 15 0 20 7 20 29 0 20 -6
30 -20 34 -35 9 -22 27 20 27 l40 0 0 -60z m-5140 -30 l0 -60 -35 0 -35 0 0
60 0 60 35 0 35 0 0 -60z m3860 0 l0 -60 -40 0 -40 0 0 60 0 60 40 0 40 0 0
-60z m-4260 -15 l0 -55 -40 0 c-42 0 -54 14 -20 23 14 3 20 14 20 32 0 18 -6
29 -20 32 -34 9 -22 23 20 23 l40 0 0 -55z m1930 0 l0 -55 -40 0 c-22 0 -40 5
-40 10 0 6 7 10 15 10 10 0 15 11 15 35 0 24 -5 35 -15 35 -8 0 -15 5 -15 10
0 6 18 10 40 10 l40 0 0 -55z m1920 0 l0 -55 -35 0 c-19 0 -35 5 -35 10 0 6 7
10 15 10 10 0 15 11 15 35 0 24 -5 35 -15 35 -8 0 -15 5 -15 10 0 6 16 10 35
10 l35 0 0 -55z m-3590 -15 l0 -60 -35 0 c-24 0 -35 5 -35 15 0 8 7 15 15 15
10 0 15 10 15 30 0 20 -5 30 -15 30 -8 0 -15 7 -15 15 0 10 11 15 35 15 l35 0
0 -60z m850 0 l0 -60 -35 0 c-24 0 -35 5 -35 15 0 8 7 15 15 15 10 0 15 10 15
30 0 20 -5 30 -15 30 -8 0 -15 7 -15 15 0 10 11 15 35 15 l35 0 0 -60z m370 0
l0 -60 -35 0 c-24 0 -35 5 -35 15 0 8 7 15 15 15 10 0 15 10 15 30 0 20 -5 30
-15 30 -8 0 -15 7 -15 15 0 10 11 15 35 15 l35 0 0 -60z m1930 0 l0 -60 -35 0
c-24 0 -35 5 -35 15 0 8 7 15 15 15 10 0 15 10 15 30 0 20 -5 30 -15 30 -8 0
-15 7 -15 15 0 10 11 15 35 15 l35 0 0 -60z m710 0 l0 -60 -40 0 c-42 0 -55
18 -20 27 14 4 20 14 20 34 0 22 -5 29 -20 29 -11 0 -20 7 -20 15 0 11 11 15
40 15 l40 0 0 -60z m850 0 l0 -60 -40 0 c-40 0 -54 15 -25 26 9 4 15 19 15 35
0 19 -5 29 -15 29 -8 0 -15 7 -15 15 0 11 11 15 40 15 l40 0 0 -60z m370 0 l0
-60 -40 0 c-40 0 -54 15 -25 26 9 4 15 19 15 35 0 19 -5 29 -15 29 -8 0 -15 7
-15 15 0 11 11 15 40 15 l40 0 0 -60z m-5342 -187 l-3 -58 -35 0 -35 0 -3 58
-3 57 41 0 41 0 -3 -57z m1930 0 l-3 -58 -35 0 -35 0 -3 58 -3 57 41 0 41 0
-3 -57z m1922 -3 l0 -60 -35 0 -35 0 0 60 0 60 35 0 35 0 0 -60z m-3590 -10
l0 -60 -35 0 -35 0 0 60 0 60 35 0 35 0 0 -60z m850 0 l0 -60 -35 0 -35 0 0
60 0 60 35 0 35 0 0 -60z m370 0 l0 -60 -35 0 -35 0 0 60 0 60 35 0 35 0 0
-60z m1930 0 l0 -60 -35 0 -35 0 0 60 0 60 35 0 35 0 0 -60z m710 0 l0 -60
-40 0 -40 0 0 60 0 60 40 0 40 0 0 -60z m850 0 l0 -60 -40 0 -40 0 0 60 0 60
40 0 40 0 0 -60z m370 0 l0 -60 -40 0 -40 0 0 60 0 60 40 0 40 0 0 -60z
m-4952 33 c-16 -2 -40 -2 -55 0 -16 2 -3 4 27 4 30 0 43 -2 28 -4z m3860 0
c-16 -2 -40 -2 -55 0 -16 2 -3 4 27 4 30 0 43 -2 28 -4z m-3848 -188 l0 -55
-35 0 -35 0 0 55 0 55 35 0 35 0 0 -55z m3860 0 l0 -55 -40 0 -40 0 0 55 0 55
40 0 40 0 0 -55z m-4262 -32 l-3 -58 -35 0 -35 0 -3 58 -3 57 41 0 41 0 -3
-57z m1930 0 l-3 -58 -37 -3 -38 -3 0 60 0 61 40 0 41 0 -3 -57z m1922 -3 l0
-60 -35 0 -35 0 0 60 0 60 35 0 35 0 0 -60z m-2192 43 c-16 -2 -40 -2 -55 0
-16 2 -3 4 27 4 30 0 43 -2 28 -4z m1930 0 c-16 -2 -40 -2 -55 0 -16 2 -3 4
27 4 30 0 43 -2 28 -4z m1930 0 c-15 -2 -42 -2 -60 0 -18 2 -6 4 27 4 33 0 48
-2 33 -4z m-5520 -210 l-3 -58 -34 0 c-38 0 -53 19 -21 28 28 7 28 57 0 64
-34 9 -22 23 20 23 l41 0 -3 -57z m1930 0 l-3 -58 -34 0 c-19 0 -36 6 -38 13
-3 6 2 12 11 12 12 0 16 10 16 35 0 24 -5 35 -15 35 -8 0 -15 5 -15 10 0 6 18
10 40 10 l41 0 -3 -57z m1922 -3 l0 -60 -35 0 c-24 0 -35 5 -35 15 0 8 7 15
15 15 10 0 15 11 15 35 0 24 -5 35 -15 35 -8 0 -15 5 -15 10 0 6 16 10 35 10
l35 0 0 -60z m-2192 43 c-16 -2 -40 -2 -55 0 -16 2 -3 4 27 4 30 0 43 -2 28
-4z m1930 0 c-16 -2 -40 -2 -55 0 -16 2 -3 4 27 4 30 0 43 -2 28 -4z m1930 0
c-15 -2 -42 -2 -60 0 -18 2 -6 4 27 4 33 0 48 -2 33 -4z m-5250 -20 c-16 -2
-40 -2 -55 0 -16 2 -3 4 27 4 30 0 43 -2 28 -4z m850 0 c-16 -2 -40 -2 -55 0
-16 2 -3 4 27 4 30 0 43 -2 28 -4z m370 0 c-16 -2 -40 -2 -55 0 -16 2 -3 4 27
4 30 0 43 -2 28 -4z m1930 0 c-16 -2 -40 -2 -55 0 -16 2 -3 4 27 4 30 0 43 -2
28 -4z m710 0 c-15 -2 -42 -2 -60 0 -18 2 -6 4 27 4 33 0 48 -2 33 -4z m850 0
c-15 -2 -42 -2 -60 0 -18 2 -6 4 27 4 33 0 48 -2 33 -4z m370 0 c-15 -2 -42
-2 -60 0 -18 2 -6 4 27 4 33 0 48 -2 33 -4z m-5350 -190 l-3 -58 -34 0 c-38 0
-53 19 -21 28 28 7 28 57 0 64 -34 9 -22 23 20 23 l41 0 -3 -57z m262 -3 l0
-60 -35 0 -35 0 0 60 0 60 35 0 35 0 0 -60z m140 0 l0 -60 -35 0 c-24 0 -35 5
-35 15 0 8 7 15 15 15 10 0 15 10 15 30 0 18 -6 33 -15 36 -27 11 -16 24 20
24 l35 0 0 -60z m710 0 l0 -60 -35 0 -35 0 0 60 0 60 35 0 35 0 0 -60z m370 0
l0 -60 -35 0 -35 0 0 60 0 60 35 0 35 0 0 -60z m200 0 l0 -60 -35 0 c-24 0
-35 5 -35 15 0 8 7 15 15 15 10 0 15 10 15 30 0 18 -6 33 -15 36 -27 11 -16
24 20 24 l35 0 0 -60z m248 3 l-3 -58 -34 0 c-19 0 -36 6 -38 13 -3 6 2 12 11
12 12 0 16 10 16 35 0 24 -5 35 -15 35 -8 0 -15 5 -15 10 0 6 18 10 40 10 l41
0 -3 -57z m1480 0 c-3 -57 -3 -58 -35 -61 l-33 -3 0 60 0 61 35 0 36 0 -3 -57z
m202 -3 l0 -60 -35 0 c-24 0 -35 5 -35 15 0 8 7 15 15 15 10 0 15 10 15 30 0
18 -6 33 -15 36 -27 11 -16 24 20 24 l35 0 0 -60z m240 0 l0 -60 -35 0 c-24 0
-35 5 -35 15 0 8 7 15 15 15 10 0 15 11 15 35 0 24 -5 35 -15 35 -8 0 -15 5
-15 10 0 6 16 10 35 10 l35 0 0 -60z m268 3 l-3 -58 -35 0 -35 0 -3 58 -3 57
41 0 41 0 -3 -57z m140 0 l-3 -58 -34 0 c-19 0 -36 6 -38 13 -3 6 2 12 11 12
12 0 16 10 16 35 0 24 -5 35 -15 35 -8 0 -15 5 -15 10 0 6 18 10 40 10 l41 0
-3 -57z m710 0 l-3 -58 -35 0 -35 0 -3 58 -3 57 41 0 41 0 -3 -57z m370 0 l-3
-58 -35 0 -35 0 -3 58 -3 57 41 0 41 0 -3 -57z m200 0 l-3 -58 -34 0 c-38 0
-53 19 -21 28 28 7 28 57 0 64 -34 9 -22 23 20 23 l41 0 -3 -57z m-5138 -203
l0 -60 -35 0 c-24 0 -35 5 -35 15 0 8 7 15 15 15 10 0 15 10 15 30 0 18 -6 33
-15 36 -27 11 -16 24 20 24 l35 0 0 -60z m3858 3 l-3 -58 -34 0 c-19 0 -36 6
-38 13 -3 6 2 12 11 12 12 0 16 10 16 35 0 24 -5 35 -15 35 -8 0 -15 5 -15 10
0 6 18 10 40 10 l41 0 -3 -57z m-3998 -13 l0 -60 -35 0 c-36 0 -47 13 -20 24
9 3 15 18 15 36 0 20 -5 30 -15 30 -8 0 -15 7 -15 15 0 10 11 15 35 15 l35 0
0 -60z m850 0 l0 -60 -35 0 c-36 0 -47 13 -20 24 9 3 15 18 15 36 0 20 -5 30
-15 30 -8 0 -15 7 -15 15 0 10 11 15 35 15 l35 0 0 -60z m370 0 l0 -60 -35 0
c-36 0 -47 13 -20 24 9 3 15 18 15 36 0 20 -5 30 -15 30 -8 0 -15 7 -15 15 0
10 11 15 35 15 l35 0 0 -60z m1930 0 l0 -60 -35 0 c-36 0 -47 13 -20 24 9 3
15 18 15 36 0 20 -5 30 -15 30 -8 0 -15 7 -15 15 0 10 11 15 35 15 l35 0 0
-60z m710 0 l0 -60 -40 0 c-42 0 -54 14 -20 23 15 4 20 14 20 36 0 24 -4 31
-20 31 -20 0 -26 11 -13 23 3 4 21 7 40 7 l33 0 0 -60z m848 -2 l3 -58 -41 0
c-22 0 -40 5 -40 10 0 6 7 10 15 10 10 0 15 11 15 35 0 24 -5 35 -15 35 -8 0
-15 7 -15 16 0 12 9 14 38 12 l37 -3 3 -57z m372 2 l0 -60 -40 0 c-22 0 -40 5
-40 10 0 6 7 10 15 10 10 0 15 11 15 35 0 24 -5 35 -15 35 -8 0 -15 7 -15 15
0 11 11 15 40 15 l40 0 0 -60z"/>
<path d="M5990 5385 c0 -150 4 -235 10 -235 6 0 10 85 10 235 0 150 -4 235
-10 235 -6 0 -10 -85 -10 -235z"/>
<path d="M6070 5233 c0 -10 5 -25 10 -33 7 -11 10 -7 10 18 0 17 -4 32 -10 32
-5 0 -10 -8 -10 -17z"/>
</g>
</svg>
